<!--?xml version="1.0" encoding="UTF-8" standalone="no"?-->
<!-- Generated by graphviz version 2.28.0 (20110507.0327)
 -->
<!-- Title: termapis Pages: 1 -->
<svg width="420pt" height="266pt" viewBox="0.00 0.00 420.00 266.00" xmlns="http://www.w3.org/2000/svg" xmlns:xlink="http://www.w3.org/1999/xlink">
<g id="graph1" class="graph" transform="scale(1 1) rotate(0) translate(4 262)">
<title>termapis</title>
<polygon fill="white" stroke="white" points="-4,5 -4,-262 417,-262 417,5 -4,5"/>
<!-- (n)curses -->
<g id="node1" class="node"><title>(n)curses</title>
<a xlink:href="https://en.wikipedia.org/wiki/Curses_%28programming_library%29" xlink:title="(n)curses">
<ellipse fill="none" stroke="black" cx="96" cy="-240" rx="46.1342" ry="18"/>
<text text-anchor="middle" x="96" y="-235.8" font-family="Times,serif" font-size="14.00">(n)curses</text>
</a>
</g>
<!-- termcap -->
<g id="node4" class="node"><title>termcap</title>
<a xlink:href="https://en.wikipedia.org/wiki/Termcap" xlink:title="termcap">
<ellipse fill="none" stroke="black" cx="148" cy="-168" rx="42.2038" ry="18"/>
<text text-anchor="middle" x="148" y="-163.8" font-family="Times,serif" font-size="14.00">termcap</text>
</a>
</g>
<!-- (n)curses&#45;&gt;termcap -->
<g id="edge3" class="edge"><title>(n)curses-&gt;termcap</title>
<path fill="none" stroke="black" d="M108.323,-222.411C114.67,-213.868 122.536,-203.278 129.587,-193.787"/>
<polygon fill="black" stroke="black" points="132.612,-195.585 135.765,-185.47 126.992,-191.41 132.612,-195.585"/>
</g>
<!-- terminfo -->
<g id="node5" class="node"><title>terminfo</title>
<a xlink:href="https://en.wikipedia.org/wiki/Terminfo" xlink:title="terminfo">
<ellipse fill="none" stroke="black" cx="44" cy="-168" rx="43.9355" ry="18"/>
<text text-anchor="middle" x="44" y="-163.8" font-family="Times,serif" font-size="14.00">terminfo</text>
</a>
</g>
<!-- (n)curses&#45;&gt;terminfo -->
<g id="edge4" class="edge"><title>(n)curses-&gt;terminfo</title>
<path fill="none" stroke="black" d="M83.6767,-222.411C77.3303,-213.868 69.464,-203.278 62.4135,-193.787"/>
<polygon fill="black" stroke="black" points="65.0077,-191.41 56.2348,-185.47 59.3885,-195.585 65.0077,-191.41"/>
</g>
<!-- termio(s) -->
<g id="node6" class="node"><title>termio(s)</title>
<a xlink:href="https://en.wikipedia.org/wiki/POSIX terminal interface" xlink:title="termio(s)">
<ellipse fill="none" stroke="black" cx="96" cy="-96" rx="46.1471" ry="18"/>
<text text-anchor="middle" x="96" y="-91.8" font-family="Times,serif" font-size="14.00">termio(s)</text>
</a>
</g>
<!-- termcap&#45;&gt;termio(s) -->
<g id="edge5" class="edge"><title>termcap-&gt;termio(s)</title>
<path fill="none" stroke="black" d="M135.677,-150.411C129.33,-141.868 121.464,-131.278 114.413,-121.787"/>
<polygon fill="black" stroke="black" points="117.008,-119.41 108.235,-113.47 111.388,-123.585 117.008,-119.41"/>
</g>
<!-- terminfo&#45;&gt;termcap -->
<g id="edge9" class="edge"><title>terminfo-&gt;termcap</title>
<path fill="none" stroke="black" stroke-dasharray="1,5" d="M88.2813,-168C90.6189,-168 92.9565,-168 95.2941,-168"/>
<polygon fill="black" stroke="black" points="95.5437,-171.5 105.544,-168 95.5437,-164.5 95.5437,-171.5"/>
</g>
<!-- terminfo&#45;&gt;termio(s) -->
<g id="edge6" class="edge"><title>terminfo-&gt;termio(s)</title>
<path fill="none" stroke="black" d="M56.3233,-150.411C62.6697,-141.868 70.536,-131.278 77.5865,-121.787"/>
<polygon fill="black" stroke="black" points="80.6115,-123.585 83.7652,-113.47 74.9923,-119.41 80.6115,-123.585"/>
</g>
<!-- (emulated)\nterminal -->
<g id="node7" class="node"><title>(emulated)\nterminal</title>
<a xlink:href="https://en.wikipedia.org/wiki/Terminal_emulator" xlink:title="(emulated) terminal">
<polygon fill="none" stroke="black" points="133.979,-41.6019 58.0208,-41.6019 58.0208,-0.398095 133.979,-0.398095 133.979,-41.6019"/>
<text text-anchor="middle" x="96" y="-25.2" font-family="Times,serif" font-size="14.00">(emulated)</text>
<text text-anchor="middle" x="96" y="-8.4" font-family="Times,serif" font-size="14.00">terminal</text>
</a>
</g>
<!-- termio(s)&#45;&gt;(emulated)\nterminal -->
<g id="edge7" class="edge"><title>termio(s)-&gt;(emulated)\nterminal</title>
<path fill="none" stroke="black" d="M96,-77.7C96,-70.0265 96,-60.7702 96,-52.026"/>
<polygon fill="black" stroke="black" points="99.5001,-51.7548 96,-41.7549 92.5001,-51.7549 99.5001,-51.7548"/>
</g>
<!-- PDCurses -->
<g id="node10" class="node"><title>PDCurses</title>
<ellipse fill="none" stroke="black" cx="311" cy="-240" rx="49.4857" ry="18"/>
<text text-anchor="middle" x="311" y="-235.8" font-family="Times,serif" font-size="14.00">PDCurses</text>
</g>
<!-- X11 -->
<g id="node13" class="node"><title>X11</title>
<ellipse fill="none" stroke="black" cx="236" cy="-168" rx="27.4962" ry="18"/>
<text text-anchor="middle" x="236" y="-163.8" font-family="Times,serif" font-size="14.00">X11</text>
</g>
<!-- PDCurses&#45;&gt;X11 -->
<g id="edge13" class="edge"><title>PDCurses-&gt;X11</title>
<path fill="none" stroke="black" d="M293.605,-222.765C283.198,-213.051 269.858,-200.6 258.636,-190.127"/>
<polygon fill="black" stroke="black" points="260.966,-187.514 251.268,-183.25 256.19,-192.632 260.966,-187.514"/>
</g>
<!-- SDL -->
<g id="node14" class="node"><title>SDL</title>
<ellipse fill="none" stroke="black" cx="311" cy="-168" rx="28.9161" ry="18"/>
<text text-anchor="middle" x="311" y="-163.8" font-family="Times,serif" font-size="14.00">SDL</text>
</g>
<!-- PDCurses&#45;&gt;SDL -->
<g id="edge14" class="edge"><title>PDCurses-&gt;SDL</title>
<path fill="none" stroke="black" d="M311,-221.697C311,-213.983 311,-204.712 311,-196.112"/>
<polygon fill="black" stroke="black" points="314.5,-196.104 311,-186.104 307.5,-196.104 314.5,-196.104"/>
</g>
<!-- ... -->
<g id="node15" class="node"><title>...</title>
<ellipse fill="none" stroke="black" cx="385" cy="-168" rx="27" ry="18"/>
<text text-anchor="middle" x="385" y="-163.8" font-family="Times,serif" font-size="14.00">...</text>
</g>
<!-- PDCurses&#45;&gt;... -->
<g id="edge15" class="edge"><title>PDCurses-&gt;...</title>
<path fill="none" stroke="black" d="M328.163,-222.765C338.431,-213.051 351.594,-200.6 362.666,-190.127"/>
<polygon fill="black" stroke="black" points="365.076,-192.665 369.936,-183.25 360.266,-187.579 365.076,-192.665"/>
</g>
<!-- driver -->
<g id="node16" class="node"><title>driver</title>
<ellipse fill="none" stroke="black" cx="311" cy="-96" rx="34.1403" ry="18"/>
<text text-anchor="middle" x="311" y="-91.8" font-family="Times,serif" font-size="14.00">driver</text>
</g>
<!-- X11&#45;&gt;driver -->
<g id="edge16" class="edge"><title>X11-&gt;driver</title>
<path fill="none" stroke="black" d="M251.177,-152.834C261.571,-143.134 275.56,-130.077 287.398,-119.028"/>
<polygon fill="black" stroke="black" points="289.884,-121.495 294.807,-112.114 285.108,-116.378 289.884,-121.495"/>
</g>
<!-- SDL&#45;&gt;driver -->
<g id="edge17" class="edge"><title>SDL-&gt;driver</title>
<path fill="none" stroke="black" d="M311,-149.697C311,-141.983 311,-132.712 311,-124.112"/>
<polygon fill="black" stroke="black" points="314.5,-124.104 311,-114.104 307.5,-124.104 314.5,-124.104"/>
</g>
<!-- ...&#45;&gt;driver -->
<g id="edge18" class="edge"><title>...-&gt;driver</title>
<path fill="none" stroke="black" d="M370.025,-152.834C359.77,-143.134 345.967,-130.077 334.287,-119.028"/>
<polygon fill="black" stroke="black" points="336.647,-116.443 326.977,-112.114 331.837,-121.528 336.647,-116.443"/>
</g>
<!-- graphics\nhardware -->
<g id="node17" class="node"><title>graphics\nhardware</title>
<polygon fill="none" stroke="black" points="345.054,-41.6019 276.946,-41.6019 276.946,-0.398095 345.054,-0.398095 345.054,-41.6019"/>
<text text-anchor="middle" x="311" y="-25.2" font-family="Times,serif" font-size="14.00">graphics</text>
<text text-anchor="middle" x="311" y="-8.4" font-family="Times,serif" font-size="14.00">hardware</text>
</g>
<!-- driver&#45;&gt;graphics\nhardware -->
<g id="edge19" class="edge"><title>driver-&gt;graphics\nhardware</title>
<path fill="none" stroke="black" d="M311,-77.7C311,-70.0265 311,-60.7702 311,-52.026"/>
<polygon fill="black" stroke="black" points="314.5,-51.7548 311,-41.7549 307.5,-51.7549 314.5,-51.7548"/>
</g>
</g>
</svg>